<?xml version="1.0" standalone="no"?>
<!DOCTYPE svg PUBLIC "-//W3C//DTD SVG 20010904//EN"
 "http://www.w3.org/TR/2001/REC-SVG-20010904/DTD/svg10.dtd">
<svg version="1.0" xmlns="http://www.w3.org/2000/svg"
 width="700.000000pt" height="700.000000pt" viewBox="0 0 700.000000 700.000000"
 preserveAspectRatio="xMidYMid meet">
<metadata>
Created by potrace 1.14, written by Peter Selinger 2001-2017
</metadata>
<g transform="translate(0.000000,700.000000) scale(0.100000,-0.100000)"
fill="#000000" stroke="none">
<path d="M3670 6782 l-85 -3 0 -187 c0 -185 -1 -188 -32 -279 -65 -185 -191
-395 -353 -587 -143 -170 -242 -272 -580 -602 -180 -175 -252 -252 -405 -429
-14 -16 -65 -81 -112 -143 -190 -251 -312 -496 -338 -677 -17 -117 -14 -338 6
-446 70 -390 332 -734 699 -919 56 -28 243 -100 260 -100 4 0 11 17 16 38 4
20 8 39 9 42 1 3 5 19 10 35 66 252 180 438 409 668 230 233 461 400 848 616
259 145 374 217 521 327 322 242 529 504 627 794 12 36 23 72 25 80 2 8 10 44
19 80 25 110 30 169 30 335 0 168 -3 201 -35 329 -104 423 -449 777 -920 942
-84 30 -73 27 -199 54 -52 11 -144 22 -205 26 -60 3 -114 6 -120 7 -5 1 -48 1
-95 -1z"/>
<path d="M2194 6188 c6 -241 -11 -287 -204 -545 -188 -252 -231 -358 -235
-573 -3 -129 19 -293 44 -338 6 -11 32 17 99 104 132 174 261 310 551 584 306
288 432 420 538 561 52 69 129 197 122 203 -12 10 -135 68 -171 80 -155 52
-297 71 -550 75 l-198 3 4 -154z"/>
<path d="M5105 4233 c-105 -134 -227 -247 -445 -416 -27 -21 -131 -88 -220
-142 -92 -56 -101 -61 -365 -205 -221 -121 -318 -179 -440 -262 -132 -89 -154
-107 -257 -211 -101 -101 -182 -219 -228 -331 -48 -119 -48 -120 8 -144 98
-42 252 -85 347 -98 22 -3 51 -7 65 -10 14 -2 86 -4 160 -5 142 -1 276 16 410
52 90 24 90 24 115 34 11 5 43 17 70 27 323 124 654 437 786 745 11 26 26 61
34 78 11 25 47 128 50 145 1 3 9 39 18 80 28 127 30 150 31 305 1 148 -5 212
-26 290 -6 22 -11 45 -12 50 -10 43 -28 95 -34 95 -4 0 -34 -35 -67 -77z"/>
<path d="M457 2390 c-19 -15 -20 -27 -19 -176 0 -210 0 -200 19 -219 12 -12
27 -15 57 -12 41 6 152 23 191 31 20 4 83 14 140 22 17 2 53 9 80 14 28 6 67
12 89 15 21 2 46 7 55 9 9 3 36 8 61 11 25 3 52 8 60 10 8 2 35 6 60 9 25 3
56 8 70 11 14 3 68 12 120 21 52 8 106 17 120 20 14 2 41 7 60 10 125 18 130
23 130 124 0 127 70 115 -650 116 -563 0 -624 -1 -643 -16z"/>
<path d="M5268 2388 c-26 -26 -26 -168 0 -190 15 -14 106 -34 237 -53 22 -3
51 -8 65 -10 14 -2 81 -13 150 -25 69 -11 145 -25 170 -30 25 -5 63 -12 85
-14 55 -8 101 -15 160 -26 28 -5 68 -12 90 -15 39 -5 127 -20 182 -30 90 -17
119 -17 136 0 19 18 19 20 19 228 1 126 -2 151 -16 165 -15 16 -73 17 -638 18
-588 0 -623 -1 -640 -18z"/>
<path d="M1865 1754 c-341 -227 -622 -422 -626 -431 -3 -10 -4 -25 -2 -34 3
-8 136 -147 297 -308 265 -265 296 -292 322 -289 26 3 67 60 441 620 227 339
415 629 419 643 6 23 -5 37 -88 121 -69 69 -101 94 -119 93 -14 0 -267 -163
-644 -415z"/>
<path d="M4372 2076 c-51 -52 -92 -102 -92 -112 0 -11 188 -300 418 -644 386
-578 419 -625 447 -628 27 -2 57 24 329 297 264 265 297 301 291 322 -4 13
-10 27 -14 30 -3 4 -284 192 -623 418 -370 246 -627 411 -641 411 -16 0 -51
-29 -115 -94z"/>
<path d="M3295 2066 c-15 -10 -48 -138 -68 -261 -4 -24 -79 -402 -92 -465 -5
-23 -66 -332 -71 -360 -3 -14 -9 -44 -15 -68 -5 -23 -12 -59 -15 -78 -3 -20
-7 -44 -9 -53 -12 -58 -94 -471 -98 -494 -3 -17 2 -36 12 -48 16 -20 27 -20
561 -20 534 1 545 1 562 21 18 22 17 25 -8 153 -8 42 -18 90 -20 105 -3 15
-19 92 -35 172 -16 80 -31 156 -34 170 -2 14 -25 126 -49 250 -25 124 -47 236
-50 250 -2 14 -27 140 -55 280 -29 140 -53 264 -55 275 -24 129 -30 152 -47
166 -16 14 -47 17 -208 17 -135 1 -194 -3 -206 -12z"/>
</g>
</svg>
